<svg width="1200" height="520" viewBox="0 0 1200 520" fill="none" xmlns="http://www.w3.org/2000/svg" role="img" aria-labelledby="title desc">
  <title id="title">GitWhisper risk dashboard illustration</title>
  <desc id="desc">An illustrative dashboard showing quality, security, performance, bug prediction, refactor priority, and knowledge risk signals.</desc>
  <rect width="1200" height="520" rx="26" fill="#0b1110"/>
  <rect x="44" y="40" width="1112" height="440" rx="22" fill="#121c1a" stroke="#263b36"/>
  <text x="80" y="92" fill="#f3fff8" font-family="Segoe UI, Arial, sans-serif" font-size="28" font-weight="800">Engineering Health Snapshot</text>
  <text x="82" y="122" fill="#93aaa0" font-family="Segoe UI, Arial, sans-serif" font-size="15">A practical view of risk created from Git history, analyzers, ownership, and feedback.</text>
  <g>
    <rect x="80" y="160" width="220" height="120" rx="16" fill="#182824" stroke="#34554d"/>
    <text x="106" y="196" fill="#72e0b8" font-family="Segoe UI, Arial, sans-serif" font-size="16" font-weight="800">Quality Risk</text>
    <rect x="106" y="220" width="150" height="12" rx="6" fill="#28443c"/>
    <rect x="106" y="220" width="104" height="12" rx="6" fill="#72e0b8"/>
    <text x="106" y="254" fill="#d7eee4" font-family="Segoe UI, Arial, sans-serif" font-size="24" font-weight="800">69</text>
  </g>
  <g>
    <rect x="330" y="160" width="220" height="120" rx="16" fill="#182824" stroke="#34554d"/>
    <text x="356" y="196" fill="#ffd166" font-family="Segoe UI, Arial, sans-serif" font-size="16" font-weight="800">Security Signals</text>
    <rect x="356" y="220" width="150" height="12" rx="6" fill="#4b3e1d"/>
    <rect x="356" y="220" width="74" height="12" rx="6" fill="#ffd166"/>
    <text x="356" y="254" fill="#fff1be" font-family="Segoe UI, Arial, sans-serif" font-size="24" font-weight="800">42</text>
  </g>
  <g>
    <rect x="580" y="160" width="220" height="120" rx="16" fill="#182824" stroke="#34554d"/>
    <text x="606" y="196" fill="#fb923c" font-family="Segoe UI, Arial, sans-serif" font-size="16" font-weight="800">Performance Risk</text>
    <rect x="606" y="220" width="150" height="12" rx="6" fill="#4a2e19"/>
    <rect x="606" y="220" width="118" height="12" rx="6" fill="#fb923c"/>
    <text x="606" y="254" fill="#ffd9bd" font-family="Segoe UI, Arial, sans-serif" font-size="24" font-weight="800">78</text>
  </g>
  <g>
    <rect x="830" y="160" width="250" height="120" rx="16" fill="#182824" stroke="#34554d"/>
    <text x="856" y="196" fill="#e5f4ed" font-family="Segoe UI, Arial, sans-serif" font-size="16" font-weight="800">Knowledge Risk</text>
    <circle cx="885" cy="236" r="22" fill="#72e0b8" fill-opacity="0.18" stroke="#72e0b8"/>
    <circle cx="940" cy="236" r="22" fill="#ffd166" fill-opacity="0.18" stroke="#ffd166"/>
    <circle cx="995" cy="236" r="22" fill="#fb923c" fill-opacity="0.18" stroke="#fb923c"/>
    <text x="870" y="243" fill="#d7eee4" font-family="Segoe UI, Arial, sans-serif" font-size="13" font-weight="800">A</text>
    <text x="925" y="243" fill="#fff1be" font-family="Segoe UI, Arial, sans-serif" font-size="13" font-weight="800">B</text>
    <text x="981" y="243" fill="#ffd9bd" font-family="Segoe UI, Arial, sans-serif" font-size="13" font-weight="800">C</text>
  </g>
  <g>
    <rect x="80" y="318" width="460" height="112" rx="16" fill="#101917" stroke="#263b36"/>
    <text x="108" y="354" fill="#f3fff8" font-family="Segoe UI, Arial, sans-serif" font-size="16" font-weight="800">Refactor Priority</text>
    <text x="108" y="384" fill="#b8d2c8" font-family="Segoe UI, Arial, sans-serif" font-size="13">src/analysis/security_analyzer.rs</text>
    <rect x="326" y="372" width="170" height="10" rx="5" fill="#283f39"/>
    <rect x="326" y="372" width="145" height="10" rx="5" fill="#fb923c"/>
    <text x="108" y="410" fill="#b8d2c8" font-family="Segoe UI, Arial, sans-serif" font-size="13">src/dashboard.rs</text>
    <rect x="326" y="398" width="170" height="10" rx="5" fill="#283f39"/>
    <rect x="326" y="398" width="96" height="10" rx="5" fill="#ffd166"/>
  </g>
  <g>
    <rect x="590" y="318" width="490" height="112" rx="16" fill="#101917" stroke="#263b36"/>
    <text x="618" y="354" fill="#f3fff8" font-family="Segoe UI, Arial, sans-serif" font-size="16" font-weight="800">Bug Prediction Signals</text>
    <path d="M620 407C652 365 699 389 731 364C770 333 812 401 852 362C890 325 932 375 976 340C1006 316 1038 328 1060 306" stroke="#72e0b8" stroke-width="4" stroke-linecap="round"/>
    <line x1="620" y1="410" x2="1062" y2="410" stroke="#314841"/>
    <line x1="620" y1="310" x2="620" y2="410" stroke="#314841"/>
  </g>
</svg>
